G75*
G70*
%OFA0B0*%
%FSLAX24Y24*%
%IPPOS*%
%LPD*%
%AMOC8*
5,1,8,0,0,1.08239X$1,22.5*
%
%ADD10C,0.0000*%
%ADD11C,0.0060*%
%ADD12C,0.0080*%
%ADD13C,0.0030*%
%ADD14C,0.0040*%
%ADD15C,0.0200*%
%ADD16R,0.0750X0.0500*%
%ADD17R,0.0700X0.0300*%
%ADD18R,0.0300X0.0500*%
%ADD19R,0.0118X0.0118*%
%ADD20C,0.0120*%
%ADD21C,0.0050*%
D10*
X000302Y000726D02*
X000302Y020411D01*
X019987Y020411D01*
X019987Y000726D01*
X000302Y000726D01*
D11*
X004202Y000876D02*
X004302Y000876D01*
X004352Y000926D01*
X005252Y000926D01*
X005302Y000876D01*
X005402Y000876D01*
X005419Y000878D01*
X005436Y000882D01*
X005452Y000889D01*
X005466Y000899D01*
X005479Y000912D01*
X005489Y000926D01*
X005496Y000942D01*
X005500Y000959D01*
X005502Y000976D01*
X005502Y001476D02*
X005500Y001493D01*
X005496Y001510D01*
X005489Y001526D01*
X005479Y001540D01*
X005466Y001553D01*
X005452Y001563D01*
X005436Y001570D01*
X005419Y001574D01*
X005402Y001576D01*
X005302Y001576D01*
X005252Y001526D01*
X004352Y001526D01*
X004302Y001576D01*
X004202Y001576D01*
X004185Y001574D01*
X004168Y001570D01*
X004152Y001563D01*
X004138Y001553D01*
X004125Y001540D01*
X004115Y001526D01*
X004108Y001510D01*
X004104Y001493D01*
X004102Y001476D01*
X004102Y000976D02*
X004104Y000959D01*
X004108Y000942D01*
X004115Y000926D01*
X004125Y000912D01*
X004138Y000899D01*
X004152Y000889D01*
X004168Y000882D01*
X004185Y000878D01*
X004202Y000876D01*
X005202Y003876D02*
X005302Y003876D01*
X005352Y003926D01*
X006252Y003926D01*
X006302Y003876D01*
X006402Y003876D01*
X006419Y003878D01*
X006436Y003882D01*
X006452Y003889D01*
X006466Y003899D01*
X006479Y003912D01*
X006489Y003926D01*
X006496Y003942D01*
X006500Y003959D01*
X006502Y003976D01*
X006502Y004476D02*
X006500Y004493D01*
X006496Y004510D01*
X006489Y004526D01*
X006479Y004540D01*
X006466Y004553D01*
X006452Y004563D01*
X006436Y004570D01*
X006419Y004574D01*
X006402Y004576D01*
X006302Y004576D01*
X006252Y004526D01*
X005352Y004526D01*
X005302Y004576D01*
X005202Y004576D01*
X005185Y004574D01*
X005168Y004570D01*
X005152Y004563D01*
X005138Y004553D01*
X005125Y004540D01*
X005115Y004526D01*
X005108Y004510D01*
X005104Y004493D01*
X005102Y004476D01*
X005102Y003976D02*
X005104Y003959D01*
X005108Y003942D01*
X005115Y003926D01*
X005125Y003912D01*
X005138Y003899D01*
X005152Y003889D01*
X005168Y003882D01*
X005185Y003878D01*
X005202Y003876D01*
X015352Y013076D02*
X015352Y014376D01*
X015354Y014402D01*
X015359Y014428D01*
X015367Y014453D01*
X015379Y014476D01*
X015393Y014498D01*
X015411Y014517D01*
X015430Y014535D01*
X015452Y014549D01*
X015475Y014561D01*
X015500Y014569D01*
X015526Y014574D01*
X015552Y014576D01*
X016052Y014576D01*
X016078Y014574D01*
X016104Y014569D01*
X016129Y014561D01*
X016152Y014549D01*
X016174Y014535D01*
X016193Y014517D01*
X016211Y014498D01*
X016225Y014476D01*
X016237Y014453D01*
X016245Y014428D01*
X016250Y014402D01*
X016252Y014376D01*
X016252Y013076D01*
X016250Y013050D01*
X016245Y013024D01*
X016237Y012999D01*
X016225Y012976D01*
X016211Y012954D01*
X016193Y012935D01*
X016174Y012917D01*
X016152Y012903D01*
X016129Y012891D01*
X016104Y012883D01*
X016078Y012878D01*
X016052Y012876D01*
X015552Y012876D01*
X015526Y012878D01*
X015500Y012883D01*
X015475Y012891D01*
X015452Y012903D01*
X015430Y012917D01*
X015411Y012935D01*
X015393Y012954D01*
X015379Y012976D01*
X015367Y012999D01*
X015359Y013024D01*
X015354Y013050D01*
X015352Y013076D01*
X017052Y015376D02*
X017552Y015376D01*
X017578Y015378D01*
X017604Y015383D01*
X017629Y015391D01*
X017652Y015403D01*
X017674Y015417D01*
X017693Y015435D01*
X017711Y015454D01*
X017725Y015476D01*
X017737Y015499D01*
X017745Y015524D01*
X017750Y015550D01*
X017752Y015576D01*
X017752Y016876D01*
X017750Y016902D01*
X017745Y016928D01*
X017737Y016953D01*
X017725Y016976D01*
X017711Y016998D01*
X017693Y017017D01*
X017674Y017035D01*
X017652Y017049D01*
X017629Y017061D01*
X017604Y017069D01*
X017578Y017074D01*
X017552Y017076D01*
X017052Y017076D01*
X017026Y017074D01*
X017000Y017069D01*
X016975Y017061D01*
X016952Y017049D01*
X016930Y017035D01*
X016911Y017017D01*
X016893Y016998D01*
X016879Y016976D01*
X016867Y016953D01*
X016859Y016928D01*
X016854Y016902D01*
X016852Y016876D01*
X016852Y015576D01*
X016854Y015550D01*
X016859Y015524D01*
X016867Y015499D01*
X016879Y015476D01*
X016893Y015454D01*
X016911Y015435D01*
X016930Y015417D01*
X016952Y015403D01*
X016975Y015391D01*
X017000Y015383D01*
X017026Y015378D01*
X017052Y015376D01*
X018352Y014376D02*
X018352Y013076D01*
X018354Y013050D01*
X018359Y013024D01*
X018367Y012999D01*
X018379Y012976D01*
X018393Y012954D01*
X018411Y012935D01*
X018430Y012917D01*
X018452Y012903D01*
X018475Y012891D01*
X018500Y012883D01*
X018526Y012878D01*
X018552Y012876D01*
X019052Y012876D01*
X019078Y012878D01*
X019104Y012883D01*
X019129Y012891D01*
X019152Y012903D01*
X019174Y012917D01*
X019193Y012935D01*
X019211Y012954D01*
X019225Y012976D01*
X019237Y012999D01*
X019245Y013024D01*
X019250Y013050D01*
X019252Y013076D01*
X019252Y014376D01*
X019250Y014402D01*
X019245Y014428D01*
X019237Y014453D01*
X019225Y014476D01*
X019211Y014498D01*
X019193Y014517D01*
X019174Y014535D01*
X019152Y014549D01*
X019129Y014561D01*
X019104Y014569D01*
X019078Y014574D01*
X019052Y014576D01*
X018552Y014576D01*
X018526Y014574D01*
X018500Y014569D01*
X018475Y014561D01*
X018452Y014549D01*
X018430Y014535D01*
X018411Y014517D01*
X018393Y014498D01*
X018379Y014476D01*
X018367Y014453D01*
X018359Y014428D01*
X018354Y014402D01*
X018352Y014376D01*
X016202Y018526D02*
X012402Y018526D01*
X012302Y018626D01*
X012302Y019776D01*
X011166Y018472D02*
X010739Y018472D01*
X010632Y018365D01*
X010632Y018045D01*
X011272Y018045D01*
X011272Y018365D01*
X011166Y018472D01*
X011272Y017827D02*
X010632Y017827D01*
X010272Y017829D02*
X010166Y017722D01*
X010272Y017829D02*
X010272Y018043D01*
X010166Y018149D01*
X010059Y018149D01*
X009952Y018043D01*
X009952Y017936D01*
X009952Y018043D02*
X009845Y018149D01*
X009739Y018149D01*
X009632Y018043D01*
X009632Y017829D01*
X009739Y017722D01*
X010166Y017507D02*
X010166Y017400D01*
X010272Y017400D01*
X010272Y017507D01*
X010166Y017507D01*
X010166Y017183D02*
X010059Y017183D01*
X009952Y017076D01*
X009952Y016969D01*
X009952Y017076D02*
X009845Y017183D01*
X009739Y017183D01*
X009632Y017076D01*
X009632Y016862D01*
X009739Y016756D01*
X010166Y016756D02*
X010272Y016862D01*
X010272Y017076D01*
X010166Y017183D01*
X010302Y017076D02*
X010252Y017026D01*
X009352Y017026D01*
X009302Y017076D01*
X009202Y017076D01*
X009272Y017076D02*
X009166Y017183D01*
X008952Y017183D01*
X008952Y016969D01*
X009102Y016976D02*
X009104Y016993D01*
X009108Y017010D01*
X009115Y017026D01*
X009125Y017040D01*
X009138Y017053D01*
X009152Y017063D01*
X009168Y017070D01*
X009185Y017074D01*
X009202Y017076D01*
X009272Y017076D02*
X009272Y016862D01*
X009166Y016756D01*
X008739Y016756D01*
X008632Y016862D01*
X008632Y017076D01*
X008739Y017183D01*
X008632Y017400D02*
X009272Y017827D01*
X008632Y017827D01*
X008632Y018045D02*
X008632Y018365D01*
X008739Y018472D01*
X009166Y018472D01*
X009272Y018365D01*
X009272Y018045D01*
X008632Y018045D01*
X008272Y018043D02*
X008272Y017829D01*
X008166Y017722D01*
X008166Y017507D02*
X008272Y017507D01*
X008272Y017400D01*
X008166Y017400D01*
X008166Y017507D01*
X008166Y017183D02*
X008059Y017183D01*
X007952Y017076D01*
X007952Y016969D01*
X007952Y017076D02*
X007845Y017183D01*
X007739Y017183D01*
X007632Y017076D01*
X007632Y016862D01*
X007739Y016756D01*
X008166Y016756D02*
X008272Y016862D01*
X008272Y017076D01*
X008166Y017183D01*
X008632Y017400D02*
X009272Y017400D01*
X009102Y016476D02*
X009104Y016459D01*
X009108Y016442D01*
X009115Y016426D01*
X009125Y016412D01*
X009138Y016399D01*
X009152Y016389D01*
X009168Y016382D01*
X009185Y016378D01*
X009202Y016376D01*
X009302Y016376D01*
X009352Y016426D01*
X010252Y016426D01*
X010302Y016376D01*
X010402Y016376D01*
X010419Y016378D01*
X010436Y016382D01*
X010452Y016389D01*
X010466Y016399D01*
X010479Y016412D01*
X010489Y016426D01*
X010496Y016442D01*
X010500Y016459D01*
X010502Y016476D01*
X010739Y016756D02*
X011166Y016756D01*
X011272Y016862D01*
X011272Y017076D01*
X011166Y017183D01*
X010952Y017183D01*
X010952Y016969D01*
X010739Y016756D02*
X010632Y016862D01*
X010632Y017076D01*
X010739Y017183D01*
X010632Y017400D02*
X011272Y017827D01*
X011272Y017400D02*
X010632Y017400D01*
X010402Y017076D02*
X010302Y017076D01*
X010402Y017076D02*
X010419Y017074D01*
X010436Y017070D01*
X010452Y017063D01*
X010466Y017053D01*
X010479Y017040D01*
X010489Y017026D01*
X010496Y017010D01*
X010500Y016993D01*
X010502Y016976D01*
X010059Y018367D02*
X009632Y018367D01*
X010059Y018367D02*
X010272Y018580D01*
X010059Y018794D01*
X009632Y018794D01*
X008272Y018580D02*
X008059Y018794D01*
X007632Y018794D01*
X007632Y018367D02*
X008059Y018367D01*
X008272Y018580D01*
X008166Y018149D02*
X008059Y018149D01*
X007952Y018043D01*
X007952Y017936D01*
X007952Y018043D02*
X007845Y018149D01*
X007739Y018149D01*
X007632Y018043D01*
X007632Y017829D01*
X007739Y017722D01*
X008166Y018149D02*
X008272Y018043D01*
X006652Y017826D02*
X006652Y017726D01*
X006602Y017676D01*
X006602Y016776D01*
X006652Y016726D01*
X006652Y016626D01*
X006650Y016609D01*
X006646Y016592D01*
X006639Y016576D01*
X006629Y016562D01*
X006616Y016549D01*
X006602Y016539D01*
X006586Y016532D01*
X006569Y016528D01*
X006552Y016526D01*
X006052Y016526D02*
X006035Y016528D01*
X006018Y016532D01*
X006002Y016539D01*
X005988Y016549D01*
X005975Y016562D01*
X005965Y016576D01*
X005958Y016592D01*
X005954Y016609D01*
X005952Y016626D01*
X005952Y016726D01*
X006002Y016776D01*
X006002Y017676D01*
X005952Y017726D01*
X005952Y017826D01*
X005954Y017843D01*
X005958Y017860D01*
X005965Y017876D01*
X005975Y017890D01*
X005988Y017903D01*
X006002Y017913D01*
X006018Y017920D01*
X006035Y017924D01*
X006052Y017926D01*
X006552Y017926D02*
X006569Y017924D01*
X006586Y017920D01*
X006602Y017913D01*
X006616Y017903D01*
X006629Y017890D01*
X006639Y017876D01*
X006646Y017860D01*
X006650Y017843D01*
X006652Y017826D01*
X016202Y018526D02*
X016302Y018626D01*
X016302Y019776D01*
X017702Y019576D02*
X017802Y019576D01*
X017852Y019526D01*
X018752Y019526D01*
X018802Y019576D01*
X018902Y019576D01*
X018919Y019574D01*
X018936Y019570D01*
X018952Y019563D01*
X018966Y019553D01*
X018979Y019540D01*
X018989Y019526D01*
X018996Y019510D01*
X019000Y019493D01*
X019002Y019476D01*
X019002Y018976D02*
X019000Y018959D01*
X018996Y018942D01*
X018989Y018926D01*
X018979Y018912D01*
X018966Y018899D01*
X018952Y018889D01*
X018936Y018882D01*
X018919Y018878D01*
X018902Y018876D01*
X018802Y018876D01*
X018752Y018926D01*
X017852Y018926D01*
X017802Y018876D01*
X017702Y018876D01*
X017685Y018878D01*
X017668Y018882D01*
X017652Y018889D01*
X017638Y018899D01*
X017625Y018912D01*
X017615Y018926D01*
X017608Y018942D01*
X017604Y018959D01*
X017602Y018976D01*
X017602Y019476D02*
X017604Y019493D01*
X017608Y019510D01*
X017615Y019526D01*
X017625Y019540D01*
X017638Y019553D01*
X017652Y019563D01*
X017668Y019570D01*
X017685Y019574D01*
X017702Y019576D01*
X018632Y007446D02*
X018632Y007019D01*
X018952Y007019D01*
X018845Y007233D01*
X018845Y007340D01*
X018952Y007446D01*
X019166Y007446D01*
X019272Y007340D01*
X019272Y007126D01*
X019166Y007019D01*
X019272Y006802D02*
X019272Y006375D01*
X019272Y006588D02*
X018632Y006588D01*
X018845Y006375D01*
X018739Y006157D02*
X019166Y005730D01*
X019272Y005837D01*
X019272Y006050D01*
X019166Y006157D01*
X018739Y006157D01*
X018632Y006050D01*
X018632Y005837D01*
X018739Y005730D01*
X019166Y005730D01*
X019272Y005513D02*
X019272Y005086D01*
X018845Y005513D01*
X018739Y005513D01*
X018632Y005406D01*
X018632Y005192D01*
X018739Y005086D01*
X018272Y004978D02*
X017632Y004978D01*
X017845Y005085D02*
X017845Y005299D01*
X017952Y005405D01*
X018272Y005405D01*
X018166Y005623D02*
X018272Y005730D01*
X018272Y006050D01*
X017845Y006050D01*
X017845Y005623D02*
X018166Y005623D01*
X017845Y005085D02*
X017952Y004978D01*
X017739Y004761D02*
X017632Y004654D01*
X017632Y004441D01*
X017739Y004334D01*
X018166Y004334D01*
X018272Y004441D01*
X018272Y004654D01*
X018166Y004761D01*
X017952Y004116D02*
X017952Y003689D01*
X017845Y003472D02*
X018272Y003472D01*
X018272Y003151D01*
X018166Y003045D01*
X017845Y003045D01*
X017952Y002827D02*
X017845Y002720D01*
X017845Y002507D01*
X017952Y002400D01*
X017739Y002183D02*
X017632Y002076D01*
X017632Y001862D01*
X017739Y001756D01*
X018166Y001756D01*
X018272Y001862D01*
X018272Y002076D01*
X018166Y002183D01*
X018272Y002400D02*
X017632Y002400D01*
X017952Y002827D02*
X018272Y002827D01*
X018845Y002720D02*
X018845Y002400D01*
X019486Y002400D01*
X019272Y002400D02*
X019272Y002720D01*
X019166Y002827D01*
X018952Y002827D01*
X018845Y002720D01*
X018845Y003045D02*
X019272Y003045D01*
X019059Y003045D02*
X018845Y003258D01*
X018845Y003365D01*
X018845Y003582D02*
X018845Y003689D01*
X019272Y003689D01*
X019272Y003795D02*
X019272Y003582D01*
X019272Y004011D02*
X019272Y004225D01*
X019272Y004118D02*
X018632Y004118D01*
X018632Y004011D01*
X018632Y003689D02*
X018525Y003689D01*
X018845Y002183D02*
X019272Y002183D01*
X018952Y002183D02*
X018952Y001756D01*
X018845Y001756D02*
X018632Y001969D01*
X018845Y002183D01*
X018845Y001756D02*
X019272Y001756D01*
D12*
X015302Y001976D02*
X015302Y001476D01*
X015052Y001226D01*
X014552Y001226D01*
X014302Y001476D01*
X014302Y001976D01*
X014552Y002226D01*
X014302Y002476D01*
X014302Y002976D01*
X014552Y003226D01*
X014302Y003476D01*
X014302Y003976D01*
X014552Y004226D01*
X014302Y004476D01*
X014302Y004976D01*
X014552Y005226D01*
X015052Y005226D01*
X015302Y004976D01*
X015302Y004476D01*
X015052Y004226D01*
X015302Y003976D01*
X015302Y003476D01*
X015052Y003226D01*
X015302Y002976D01*
X015302Y002476D01*
X015052Y002226D01*
X015302Y001976D01*
X013752Y005526D02*
X013752Y005926D01*
X013318Y006226D02*
X013320Y006288D01*
X013326Y006351D01*
X013336Y006412D01*
X013350Y006473D01*
X013367Y006533D01*
X013388Y006592D01*
X013414Y006649D01*
X013442Y006704D01*
X013474Y006758D01*
X013510Y006809D01*
X013548Y006859D01*
X013590Y006905D01*
X013634Y006949D01*
X013682Y006990D01*
X013731Y007028D01*
X013783Y007062D01*
X013837Y007093D01*
X013893Y007121D01*
X013951Y007145D01*
X014010Y007166D01*
X014070Y007182D01*
X014131Y007195D01*
X014193Y007204D01*
X014255Y007209D01*
X014318Y007210D01*
X014380Y007207D01*
X014442Y007200D01*
X014504Y007189D01*
X014564Y007174D01*
X014624Y007156D01*
X014682Y007134D01*
X014739Y007108D01*
X014794Y007078D01*
X014847Y007045D01*
X014898Y007009D01*
X014946Y006970D01*
X014992Y006927D01*
X015035Y006882D01*
X015075Y006834D01*
X015112Y006784D01*
X015146Y006731D01*
X015177Y006677D01*
X015203Y006621D01*
X015227Y006563D01*
X015246Y006503D01*
X015262Y006443D01*
X015274Y006381D01*
X015282Y006320D01*
X015286Y006257D01*
X015286Y006195D01*
X015282Y006132D01*
X015274Y006071D01*
X015262Y006009D01*
X015246Y005949D01*
X015227Y005889D01*
X015203Y005831D01*
X015177Y005775D01*
X015146Y005721D01*
X015112Y005668D01*
X015075Y005618D01*
X015035Y005570D01*
X014992Y005525D01*
X014946Y005482D01*
X014898Y005443D01*
X014847Y005407D01*
X014794Y005374D01*
X014739Y005344D01*
X014682Y005318D01*
X014624Y005296D01*
X014564Y005278D01*
X014504Y005263D01*
X014442Y005252D01*
X014380Y005245D01*
X014318Y005242D01*
X014255Y005243D01*
X014193Y005248D01*
X014131Y005257D01*
X014070Y005270D01*
X014010Y005286D01*
X013951Y005307D01*
X013893Y005331D01*
X013837Y005359D01*
X013783Y005390D01*
X013731Y005424D01*
X013682Y005462D01*
X013634Y005503D01*
X013590Y005547D01*
X013548Y005593D01*
X013510Y005643D01*
X013474Y005694D01*
X013442Y005748D01*
X013414Y005803D01*
X013388Y005860D01*
X013367Y005919D01*
X013350Y005979D01*
X013336Y006040D01*
X013326Y006101D01*
X013320Y006164D01*
X013318Y006226D01*
X013552Y009226D02*
X014052Y009226D01*
X014302Y009476D01*
X014302Y009976D01*
X014052Y010226D01*
X014302Y010476D01*
X014302Y010976D01*
X014052Y011226D01*
X014302Y011476D01*
X014302Y011976D01*
X014052Y012226D01*
X014302Y012476D01*
X014302Y012976D01*
X014052Y013226D01*
X013552Y013226D01*
X013302Y012976D01*
X013302Y012476D01*
X013552Y012226D01*
X013302Y011976D01*
X013302Y011476D01*
X013552Y011226D01*
X013302Y010976D01*
X013302Y010476D01*
X013552Y010226D01*
X013302Y009976D01*
X013302Y009476D01*
X013552Y009226D01*
X014252Y015526D02*
X014252Y015926D01*
X013818Y016226D02*
X013820Y016288D01*
X013826Y016351D01*
X013836Y016412D01*
X013850Y016473D01*
X013867Y016533D01*
X013888Y016592D01*
X013914Y016649D01*
X013942Y016704D01*
X013974Y016758D01*
X014010Y016809D01*
X014048Y016859D01*
X014090Y016905D01*
X014134Y016949D01*
X014182Y016990D01*
X014231Y017028D01*
X014283Y017062D01*
X014337Y017093D01*
X014393Y017121D01*
X014451Y017145D01*
X014510Y017166D01*
X014570Y017182D01*
X014631Y017195D01*
X014693Y017204D01*
X014755Y017209D01*
X014818Y017210D01*
X014880Y017207D01*
X014942Y017200D01*
X015004Y017189D01*
X015064Y017174D01*
X015124Y017156D01*
X015182Y017134D01*
X015239Y017108D01*
X015294Y017078D01*
X015347Y017045D01*
X015398Y017009D01*
X015446Y016970D01*
X015492Y016927D01*
X015535Y016882D01*
X015575Y016834D01*
X015612Y016784D01*
X015646Y016731D01*
X015677Y016677D01*
X015703Y016621D01*
X015727Y016563D01*
X015746Y016503D01*
X015762Y016443D01*
X015774Y016381D01*
X015782Y016320D01*
X015786Y016257D01*
X015786Y016195D01*
X015782Y016132D01*
X015774Y016071D01*
X015762Y016009D01*
X015746Y015949D01*
X015727Y015889D01*
X015703Y015831D01*
X015677Y015775D01*
X015646Y015721D01*
X015612Y015668D01*
X015575Y015618D01*
X015535Y015570D01*
X015492Y015525D01*
X015446Y015482D01*
X015398Y015443D01*
X015347Y015407D01*
X015294Y015374D01*
X015239Y015344D01*
X015182Y015318D01*
X015124Y015296D01*
X015064Y015278D01*
X015004Y015263D01*
X014942Y015252D01*
X014880Y015245D01*
X014818Y015242D01*
X014755Y015243D01*
X014693Y015248D01*
X014631Y015257D01*
X014570Y015270D01*
X014510Y015286D01*
X014451Y015307D01*
X014393Y015331D01*
X014337Y015359D01*
X014283Y015390D01*
X014231Y015424D01*
X014182Y015462D01*
X014134Y015503D01*
X014090Y015547D01*
X014048Y015593D01*
X014010Y015643D01*
X013974Y015694D01*
X013942Y015748D01*
X013914Y015803D01*
X013888Y015860D01*
X013867Y015919D01*
X013850Y015979D01*
X013836Y016040D01*
X013826Y016101D01*
X013820Y016164D01*
X013818Y016226D01*
X011302Y018976D02*
X011302Y019476D01*
X011052Y019726D01*
X010552Y019726D01*
X010302Y019476D01*
X010052Y019726D01*
X009552Y019726D01*
X009302Y019476D01*
X009302Y018976D01*
X009552Y018726D01*
X010052Y018726D01*
X010302Y018976D01*
X010552Y018726D01*
X011052Y018726D01*
X011302Y018976D01*
X009302Y018976D02*
X009302Y019476D01*
X009052Y019726D01*
X008552Y019726D01*
X008302Y019476D01*
X008052Y019726D01*
X007552Y019726D01*
X007302Y019476D01*
X007302Y018976D01*
X007552Y018726D01*
X008052Y018726D01*
X008302Y018976D01*
X008552Y018726D01*
X009052Y018726D01*
X009302Y018976D01*
X005302Y017476D02*
X005302Y016976D01*
X005052Y016726D01*
X004552Y016726D01*
X004302Y016976D01*
X004052Y016726D01*
X003552Y016726D01*
X003302Y016976D01*
X003052Y016726D01*
X002552Y016726D01*
X002302Y016976D01*
X002052Y016726D01*
X001552Y016726D01*
X001302Y016976D01*
X001052Y016726D01*
X000552Y016726D01*
X000302Y016976D01*
X000302Y017476D01*
X000552Y017726D01*
X001052Y017726D01*
X001302Y017476D01*
X001552Y017726D01*
X002052Y017726D01*
X002302Y017476D01*
X002552Y017726D01*
X003052Y017726D01*
X003302Y017476D01*
X003552Y017726D01*
X004052Y017726D01*
X004302Y017476D01*
X004552Y017726D01*
X005052Y017726D01*
X005302Y017476D01*
X001802Y014976D02*
X001802Y014476D01*
X001552Y014226D01*
X001802Y013976D01*
X001802Y013476D01*
X001552Y013226D01*
X001802Y012976D01*
X001802Y012476D01*
X001552Y012226D01*
X001802Y011976D01*
X001802Y011476D01*
X001552Y011226D01*
X001802Y010976D01*
X001802Y010476D01*
X001552Y010226D01*
X001802Y009976D01*
X001802Y009476D01*
X001552Y009226D01*
X001802Y008976D01*
X001802Y008476D01*
X001552Y008226D01*
X001802Y007976D01*
X001802Y007476D01*
X001552Y007226D01*
X001802Y006976D01*
X001802Y006476D01*
X001552Y006226D01*
X001802Y005976D01*
X001802Y005476D01*
X001552Y005226D01*
X001802Y004976D01*
X001802Y004476D01*
X001552Y004226D01*
X001802Y003976D01*
X001802Y003476D01*
X001552Y003226D01*
X001052Y003226D01*
X000802Y003476D01*
X000802Y003976D01*
X001052Y004226D01*
X000802Y004476D01*
X000802Y004976D01*
X001052Y005226D01*
X000802Y005476D01*
X000802Y005976D01*
X001052Y006226D01*
X000802Y006476D01*
X000802Y006976D01*
X001052Y007226D01*
X001552Y007226D01*
X001052Y007226D01*
X000802Y007476D01*
X000802Y007976D01*
X001052Y008226D01*
X000802Y008476D01*
X000802Y008976D01*
X001052Y009226D01*
X000802Y009476D01*
X000802Y009976D01*
X001052Y010226D01*
X000802Y010476D01*
X000802Y010976D01*
X001052Y011226D01*
X001552Y011226D01*
X001052Y011226D01*
X000802Y011476D01*
X000802Y011976D01*
X001052Y012226D01*
X000802Y012476D01*
X000802Y012976D01*
X001052Y013226D01*
X000802Y013476D01*
X000802Y013976D01*
X001052Y014226D01*
X000802Y014476D01*
X000802Y014976D01*
X001052Y015226D01*
X001552Y015226D01*
X001802Y014976D01*
X003052Y008226D02*
X002802Y007976D01*
X002802Y007476D01*
X003052Y007226D01*
X003552Y007226D01*
X003802Y007476D01*
X004052Y007226D01*
X004552Y007226D01*
X004802Y007476D01*
X005052Y007226D01*
X005552Y007226D01*
X005802Y007476D01*
X005802Y007976D01*
X005552Y008226D01*
X005052Y008226D01*
X004802Y007976D01*
X004552Y008226D01*
X004052Y008226D01*
X003802Y007976D01*
X003552Y008226D01*
X003052Y008226D01*
D13*
X003179Y008412D02*
X003179Y008799D01*
X003227Y008751D02*
X003130Y008751D01*
X003082Y008703D01*
X003082Y008654D01*
X003130Y008606D01*
X003227Y008606D01*
X003275Y008557D01*
X003275Y008509D01*
X003227Y008461D01*
X003130Y008461D01*
X003082Y008509D01*
X002981Y008509D02*
X002981Y008751D01*
X002787Y008751D02*
X002787Y008509D01*
X002836Y008461D01*
X002932Y008461D01*
X002981Y008509D01*
X003227Y008751D02*
X003275Y008703D01*
X003377Y008751D02*
X003570Y008751D01*
X003570Y008703D01*
X003377Y008509D01*
X003377Y008461D01*
X003407Y007031D02*
X003407Y006741D01*
X003305Y006741D02*
X003305Y007031D01*
X003209Y006934D01*
X003112Y007031D01*
X003112Y006741D01*
X003011Y006789D02*
X002962Y006741D01*
X002866Y006741D01*
X002817Y006789D01*
X002817Y006837D01*
X002866Y006886D01*
X002962Y006886D01*
X003011Y006837D01*
X003011Y006789D01*
X002962Y006886D02*
X003011Y006934D01*
X003011Y006983D01*
X002962Y007031D01*
X002866Y007031D01*
X002817Y006983D01*
X002817Y006934D01*
X002866Y006886D01*
X003407Y006886D02*
X003600Y006886D01*
X003701Y006789D02*
X003701Y006741D01*
X003895Y006741D01*
X003996Y006741D02*
X003996Y007031D01*
X004141Y007031D01*
X004189Y006983D01*
X004189Y006886D01*
X004141Y006837D01*
X003996Y006837D01*
X004093Y006837D02*
X004189Y006741D01*
X004291Y006741D02*
X004484Y006741D01*
X004585Y006789D02*
X004634Y006741D01*
X004730Y006741D01*
X004779Y006789D01*
X004779Y006837D01*
X004730Y006886D01*
X004634Y006886D01*
X004585Y006934D01*
X004585Y006983D01*
X004634Y007031D01*
X004730Y007031D01*
X004779Y006983D01*
X004484Y007031D02*
X004291Y007031D01*
X004291Y006741D01*
X004291Y006886D02*
X004387Y006886D01*
X003895Y006983D02*
X003701Y006789D01*
X003600Y006741D02*
X003600Y007031D01*
X003701Y007031D02*
X003895Y007031D01*
X003895Y006983D01*
X002327Y007024D02*
X002279Y006976D01*
X002086Y007169D01*
X002279Y007169D01*
X002327Y007121D01*
X002327Y007024D01*
X002279Y006976D02*
X002086Y006976D01*
X002037Y007024D01*
X002037Y007121D01*
X002086Y007169D01*
X002086Y006875D02*
X002037Y006826D01*
X002037Y006730D01*
X002086Y006681D01*
X002086Y006580D02*
X002037Y006532D01*
X002037Y006435D01*
X002086Y006387D01*
X002134Y006387D01*
X002182Y006435D01*
X002182Y006532D01*
X002231Y006580D01*
X002279Y006580D01*
X002327Y006532D01*
X002327Y006435D01*
X002279Y006387D01*
X002279Y006286D02*
X002037Y006286D01*
X002037Y006092D02*
X002279Y006092D01*
X002327Y006140D01*
X002327Y006237D01*
X002279Y006286D01*
X002376Y006483D02*
X001989Y006483D01*
X002327Y006681D02*
X002134Y006875D01*
X002086Y006875D01*
X002327Y006875D02*
X002327Y006681D01*
X000607Y006651D02*
X000607Y006845D01*
X000607Y006946D02*
X000317Y006946D01*
X000317Y007091D01*
X000366Y007139D01*
X000462Y007139D01*
X000511Y007091D01*
X000511Y006946D01*
X000511Y007043D02*
X000607Y007139D01*
X000317Y006845D02*
X000317Y006651D01*
X000607Y006651D01*
X000559Y006550D02*
X000366Y006550D01*
X000317Y006502D01*
X000317Y006357D01*
X000607Y006357D01*
X000607Y006502D01*
X000559Y006550D01*
X000462Y006651D02*
X000462Y006748D01*
X000462Y006256D02*
X000462Y006062D01*
X000414Y006062D02*
X000317Y006159D01*
X000414Y006256D01*
X000607Y006256D01*
X000607Y006062D02*
X000414Y006062D01*
X000317Y005961D02*
X000317Y005767D01*
X000607Y005767D01*
X000607Y005961D01*
X000462Y005864D02*
X000462Y005767D01*
X000462Y005666D02*
X000462Y005473D01*
X000607Y005473D02*
X000317Y005473D01*
X000317Y005666D02*
X000607Y005666D01*
X000656Y005372D02*
X000656Y005178D01*
X000607Y005029D02*
X000317Y005029D01*
X000462Y004883D01*
X000462Y005077D01*
X000366Y004782D02*
X000559Y004589D01*
X000607Y004637D01*
X000607Y004734D01*
X000559Y004782D01*
X000366Y004782D01*
X000317Y004734D01*
X000317Y004637D01*
X000366Y004589D01*
X000559Y004589D01*
X000607Y004488D02*
X000317Y004294D01*
X000317Y004488D02*
X000607Y004294D01*
X000607Y004193D02*
X000607Y004000D01*
X000607Y004096D02*
X000317Y004096D01*
X000414Y004000D01*
X000414Y008000D02*
X000317Y008096D01*
X000607Y008096D01*
X000607Y008000D02*
X000607Y008193D01*
X000607Y008294D02*
X000317Y008488D01*
X000366Y008589D02*
X000317Y008637D01*
X000317Y008734D01*
X000366Y008782D01*
X000559Y008589D01*
X000607Y008637D01*
X000607Y008734D01*
X000559Y008782D01*
X000366Y008782D01*
X000462Y008883D02*
X000317Y009029D01*
X000607Y009029D01*
X000462Y009077D02*
X000462Y008883D01*
X000656Y009178D02*
X000656Y009372D01*
X000607Y009473D02*
X000317Y009473D01*
X000462Y009473D02*
X000462Y009666D01*
X000462Y009767D02*
X000462Y009864D01*
X000317Y009767D02*
X000607Y009767D01*
X000607Y009961D01*
X000607Y010062D02*
X000414Y010062D01*
X000317Y010159D01*
X000414Y010256D01*
X000607Y010256D01*
X000607Y010357D02*
X000607Y010502D01*
X000559Y010550D01*
X000366Y010550D01*
X000317Y010502D01*
X000317Y010357D01*
X000607Y010357D01*
X000462Y010256D02*
X000462Y010062D01*
X000317Y009961D02*
X000317Y009767D01*
X000317Y009666D02*
X000607Y009666D01*
X000607Y010651D02*
X000317Y010651D01*
X000317Y010845D01*
X000317Y010946D02*
X000317Y011091D01*
X000366Y011139D01*
X000462Y011139D01*
X000511Y011091D01*
X000511Y010946D01*
X000607Y010946D02*
X000317Y010946D01*
X000511Y011043D02*
X000607Y011139D01*
X000607Y010845D02*
X000607Y010651D01*
X000462Y010651D02*
X000462Y010748D01*
X000414Y012000D02*
X000317Y012096D01*
X000607Y012096D01*
X000607Y012000D02*
X000607Y012193D01*
X000607Y012294D02*
X000317Y012488D01*
X000366Y012589D02*
X000317Y012637D01*
X000317Y012734D01*
X000366Y012782D01*
X000559Y012589D01*
X000607Y012637D01*
X000607Y012734D01*
X000559Y012782D01*
X000366Y012782D01*
X000462Y012883D02*
X000317Y013029D01*
X000607Y013029D01*
X000462Y013077D02*
X000462Y012883D01*
X000559Y012589D02*
X000366Y012589D01*
X000607Y012488D02*
X000317Y012294D01*
X000656Y013178D02*
X000656Y013372D01*
X000607Y013473D02*
X000317Y013473D01*
X000462Y013473D02*
X000462Y013666D01*
X000462Y013767D02*
X000462Y013864D01*
X000317Y013961D02*
X000317Y013767D01*
X000607Y013767D01*
X000607Y013961D01*
X000607Y014062D02*
X000414Y014062D01*
X000317Y014159D01*
X000414Y014256D01*
X000607Y014256D01*
X000607Y014357D02*
X000607Y014502D01*
X000559Y014550D01*
X000366Y014550D01*
X000317Y014502D01*
X000317Y014357D01*
X000607Y014357D01*
X000462Y014256D02*
X000462Y014062D01*
X000317Y013666D02*
X000607Y013666D01*
X000607Y014651D02*
X000317Y014651D01*
X000317Y014845D01*
X000317Y014946D02*
X000317Y015091D01*
X000366Y015139D01*
X000462Y015139D01*
X000511Y015091D01*
X000511Y014946D01*
X000607Y014946D02*
X000317Y014946D01*
X000511Y015043D02*
X000607Y015139D01*
X000607Y014845D02*
X000607Y014651D01*
X000462Y014651D02*
X000462Y014748D01*
X001989Y014778D02*
X002376Y014778D01*
X002327Y014730D02*
X002327Y014826D01*
X002279Y014875D01*
X002231Y014875D01*
X002182Y014826D01*
X002182Y014730D01*
X002134Y014681D01*
X002086Y014681D01*
X002037Y014730D01*
X002037Y014826D01*
X002086Y014875D01*
X002134Y014976D02*
X002037Y015073D01*
X002327Y015073D01*
X002327Y015169D02*
X002327Y014976D01*
X002327Y014730D02*
X002279Y014681D01*
X002279Y014580D02*
X002037Y014580D01*
X002037Y014387D02*
X002279Y014387D01*
X002327Y014435D01*
X002327Y014532D01*
X002279Y014580D01*
X004169Y016249D02*
X004169Y016491D01*
X004362Y016491D02*
X004362Y016249D01*
X004314Y016201D01*
X004217Y016201D01*
X004169Y016249D01*
X004463Y016249D02*
X004512Y016201D01*
X004609Y016201D01*
X004657Y016249D01*
X004657Y016297D01*
X004609Y016346D01*
X004512Y016346D01*
X004463Y016394D01*
X004463Y016443D01*
X004512Y016491D01*
X004609Y016491D01*
X004657Y016443D01*
X004758Y016394D02*
X004855Y016491D01*
X004855Y016201D01*
X004758Y016201D02*
X004952Y016201D01*
X005053Y016249D02*
X005101Y016201D01*
X005198Y016201D01*
X005246Y016249D01*
X005246Y016297D01*
X005198Y016346D01*
X005053Y016346D01*
X005053Y016249D01*
X005053Y016346D02*
X005149Y016443D01*
X005246Y016491D01*
X004560Y016539D02*
X004560Y016152D01*
X004580Y017921D02*
X004580Y018211D01*
X004532Y018211D02*
X004628Y018211D01*
X004728Y018211D02*
X004921Y018211D01*
X004825Y018211D02*
X004825Y017921D01*
X004628Y017921D02*
X004532Y017921D01*
X004430Y017921D02*
X004285Y018066D01*
X004237Y018017D02*
X004430Y018211D01*
X004237Y018211D02*
X004237Y017921D01*
X004136Y017969D02*
X004087Y017921D01*
X003991Y017921D01*
X003942Y017969D01*
X003942Y018163D01*
X003991Y018211D01*
X004087Y018211D01*
X004136Y018163D01*
X003843Y018211D02*
X003746Y018211D01*
X003794Y018211D02*
X003794Y017921D01*
X003746Y017921D02*
X003843Y017921D01*
X003645Y018066D02*
X003596Y018017D01*
X003451Y018017D01*
X003451Y017921D02*
X003451Y018211D01*
X003596Y018211D01*
X003645Y018163D01*
X003645Y018066D01*
X005023Y018163D02*
X005071Y018211D01*
X005168Y018211D01*
X005216Y018163D01*
X005216Y018114D01*
X005168Y018066D01*
X005216Y018017D01*
X005216Y017969D01*
X005168Y017921D01*
X005071Y017921D01*
X005023Y017969D01*
X005119Y018066D02*
X005168Y018066D01*
X002327Y011169D02*
X002327Y010976D01*
X002134Y011169D01*
X002086Y011169D01*
X002037Y011121D01*
X002037Y011024D01*
X002086Y010976D01*
X002086Y010875D02*
X002037Y010826D01*
X002037Y010730D01*
X002086Y010681D01*
X002134Y010681D01*
X002182Y010730D01*
X002182Y010826D01*
X002231Y010875D01*
X002279Y010875D01*
X002327Y010826D01*
X002327Y010730D01*
X002279Y010681D01*
X002279Y010580D02*
X002037Y010580D01*
X002037Y010387D02*
X002279Y010387D01*
X002327Y010435D01*
X002327Y010532D01*
X002279Y010580D01*
X002376Y010778D02*
X001989Y010778D01*
X000559Y008589D02*
X000366Y008589D01*
X000607Y008488D02*
X000317Y008294D01*
X012317Y017491D02*
X012511Y017491D01*
X012612Y017491D02*
X012757Y017491D01*
X012805Y017539D01*
X012805Y017733D01*
X012757Y017781D01*
X012612Y017781D01*
X012612Y017491D01*
X012317Y017491D02*
X012317Y017781D01*
X012366Y017991D02*
X012462Y017991D01*
X012511Y018039D01*
X012511Y018281D01*
X012612Y018233D02*
X012660Y018281D01*
X012757Y018281D01*
X012805Y018233D01*
X012907Y018233D02*
X012955Y018281D01*
X013052Y018281D01*
X013100Y018233D01*
X013100Y018184D01*
X013052Y018136D01*
X013100Y018087D01*
X013100Y018039D01*
X013052Y017991D01*
X012955Y017991D01*
X012907Y018039D01*
X012805Y018039D02*
X012805Y018087D01*
X012757Y018136D01*
X012660Y018136D01*
X012612Y018184D01*
X012612Y018233D01*
X012709Y018329D02*
X012709Y017942D01*
X012757Y017991D02*
X012805Y018039D01*
X012757Y017991D02*
X012660Y017991D01*
X012612Y018039D01*
X012366Y017991D02*
X012317Y018039D01*
X012317Y018281D01*
X013003Y018136D02*
X013052Y018136D01*
X013201Y018184D02*
X013298Y018281D01*
X013298Y017991D01*
X013201Y017991D02*
X013395Y017991D01*
X013298Y017781D02*
X013298Y017491D01*
X013201Y017491D02*
X013395Y017491D01*
X013397Y017453D02*
X013494Y017550D01*
X013397Y017647D01*
X013687Y017647D01*
X013791Y017539D02*
X013791Y017491D01*
X013791Y017539D02*
X013984Y017733D01*
X013984Y017781D01*
X013791Y017781D01*
X013593Y017781D02*
X013593Y017491D01*
X013689Y017491D02*
X013496Y017491D01*
X013397Y017453D02*
X013687Y017453D01*
X013639Y017352D02*
X013397Y017352D01*
X013397Y017159D02*
X013639Y017159D01*
X013687Y017207D01*
X013687Y017304D01*
X013639Y017352D01*
X013687Y017057D02*
X013687Y016864D01*
X013397Y016864D01*
X013494Y016763D02*
X013687Y016763D01*
X013542Y016763D02*
X013542Y016569D01*
X013494Y016569D02*
X013687Y016569D01*
X013494Y016569D02*
X013397Y016666D01*
X013494Y016763D01*
X013397Y016468D02*
X013397Y016275D01*
X013397Y016371D02*
X013687Y016371D01*
X013687Y016173D02*
X013397Y016173D01*
X013397Y015980D02*
X013687Y016173D01*
X013687Y015980D02*
X013397Y015980D01*
X013494Y015879D02*
X013687Y015879D01*
X013542Y015879D02*
X013542Y015685D01*
X013494Y015685D02*
X013687Y015685D01*
X013494Y015685D02*
X013397Y015782D01*
X013494Y015879D01*
X013397Y015584D02*
X013397Y015391D01*
X013397Y015487D02*
X013687Y015487D01*
X013100Y017491D02*
X012907Y017491D01*
X013003Y017491D02*
X013003Y017781D01*
X012907Y017684D01*
X013201Y017684D02*
X013298Y017781D01*
X013496Y017684D02*
X013593Y017781D01*
X013107Y013139D02*
X013011Y013043D01*
X013011Y013091D02*
X013011Y012946D01*
X013107Y012946D02*
X012817Y012946D01*
X012817Y013091D01*
X012866Y013139D01*
X012962Y013139D01*
X013011Y013091D01*
X013107Y012845D02*
X013107Y012651D01*
X012817Y012651D01*
X012817Y012845D01*
X012962Y012748D02*
X012962Y012651D01*
X012866Y012550D02*
X013059Y012550D01*
X013107Y012502D01*
X013107Y012357D01*
X012817Y012357D01*
X012817Y012502D01*
X012866Y012550D01*
X012914Y012256D02*
X012817Y012159D01*
X012914Y012062D01*
X013107Y012062D01*
X013107Y011961D02*
X013107Y011767D01*
X012817Y011767D01*
X012817Y011961D01*
X012962Y011864D02*
X012962Y011767D01*
X012962Y011666D02*
X012962Y011473D01*
X013107Y011473D02*
X012817Y011473D01*
X012817Y011666D02*
X013107Y011666D01*
X013156Y011372D02*
X013156Y011178D01*
X013107Y011029D02*
X012817Y011029D01*
X012962Y010883D01*
X012962Y011077D01*
X012866Y010782D02*
X013059Y010589D01*
X013107Y010637D01*
X013107Y010734D01*
X013059Y010782D01*
X012866Y010782D01*
X012817Y010734D01*
X012817Y010637D01*
X012866Y010589D01*
X013059Y010589D01*
X013107Y010488D02*
X012817Y010294D01*
X012817Y010488D02*
X013107Y010294D01*
X013107Y010193D02*
X013107Y010000D01*
X013107Y010096D02*
X012817Y010096D01*
X012914Y010000D01*
X012946Y007941D02*
X012897Y007893D01*
X012897Y007796D01*
X012946Y007748D01*
X012897Y007647D02*
X012994Y007550D01*
X012897Y007453D01*
X013187Y007453D01*
X013139Y007352D02*
X012897Y007352D01*
X012897Y007159D02*
X013139Y007159D01*
X013187Y007207D01*
X013187Y007304D01*
X013139Y007352D01*
X013187Y007057D02*
X013187Y006864D01*
X012897Y006864D01*
X012994Y006763D02*
X012897Y006666D01*
X012994Y006569D01*
X013187Y006569D01*
X013042Y006569D02*
X013042Y006763D01*
X012994Y006763D02*
X013187Y006763D01*
X013187Y006371D02*
X012897Y006371D01*
X012897Y006275D02*
X012897Y006468D01*
X012897Y006173D02*
X013187Y006173D01*
X012897Y005980D01*
X013187Y005980D01*
X013187Y005879D02*
X012994Y005879D01*
X012897Y005782D01*
X012994Y005685D01*
X013187Y005685D01*
X013042Y005685D02*
X013042Y005879D01*
X012897Y005584D02*
X012897Y005391D01*
X012897Y005487D02*
X013187Y005487D01*
X013817Y005091D02*
X013866Y005139D01*
X013962Y005139D01*
X014011Y005091D01*
X014011Y004946D01*
X014107Y004946D02*
X013817Y004946D01*
X013817Y005091D01*
X014011Y005043D02*
X014107Y005139D01*
X014107Y004845D02*
X014107Y004651D01*
X013817Y004651D01*
X013817Y004845D01*
X013962Y004748D02*
X013962Y004651D01*
X013866Y004550D02*
X014059Y004550D01*
X014107Y004502D01*
X014107Y004357D01*
X013817Y004357D01*
X013817Y004502D01*
X013866Y004550D01*
X013914Y004256D02*
X013817Y004159D01*
X013914Y004062D01*
X014107Y004062D01*
X014107Y003961D02*
X014107Y003767D01*
X013817Y003767D01*
X013817Y003961D01*
X013962Y003864D02*
X013962Y003767D01*
X013962Y003666D02*
X013962Y003473D01*
X014107Y003473D02*
X013817Y003473D01*
X013817Y003666D02*
X014107Y003666D01*
X014156Y003372D02*
X014156Y003178D01*
X014107Y003029D02*
X013817Y003029D01*
X013962Y002883D01*
X013962Y003077D01*
X013866Y002782D02*
X014059Y002589D01*
X014107Y002637D01*
X014107Y002734D01*
X014059Y002782D01*
X013866Y002782D01*
X013817Y002734D01*
X013817Y002637D01*
X013866Y002589D01*
X014059Y002589D01*
X014107Y002488D02*
X013817Y002294D01*
X013817Y002488D02*
X014107Y002294D01*
X014107Y002193D02*
X014107Y002000D01*
X014107Y002096D02*
X013817Y002096D01*
X013914Y002000D01*
X013962Y004062D02*
X013962Y004256D01*
X013914Y004256D02*
X014107Y004256D01*
X015489Y004483D02*
X015876Y004483D01*
X015827Y004435D02*
X015827Y004532D01*
X015779Y004580D01*
X015731Y004580D01*
X015682Y004532D01*
X015682Y004435D01*
X015634Y004387D01*
X015586Y004387D01*
X015537Y004435D01*
X015537Y004532D01*
X015586Y004580D01*
X015634Y004681D02*
X015537Y004778D01*
X015827Y004778D01*
X015827Y004681D02*
X015827Y004875D01*
X015827Y004976D02*
X015827Y005169D01*
X015827Y005073D02*
X015537Y005073D01*
X015634Y004976D01*
X015544Y005491D02*
X015447Y005587D01*
X015737Y005587D01*
X015737Y005491D02*
X015737Y005684D01*
X015689Y005785D02*
X015496Y005979D01*
X015689Y005979D01*
X015737Y005930D01*
X015737Y005834D01*
X015689Y005785D01*
X015496Y005785D01*
X015447Y005834D01*
X015447Y005930D01*
X015496Y005979D01*
X015544Y006080D02*
X015689Y006080D01*
X015737Y006128D01*
X015737Y006273D01*
X015544Y006273D01*
X015592Y006375D02*
X015592Y006471D01*
X015447Y006375D02*
X015447Y006568D01*
X015447Y006375D02*
X015737Y006375D01*
X015827Y004435D02*
X015779Y004387D01*
X015779Y004286D02*
X015537Y004286D01*
X015537Y004092D02*
X015779Y004092D01*
X015827Y004140D01*
X015827Y004237D01*
X015779Y004286D01*
X013187Y007647D02*
X012897Y007647D01*
X012946Y007941D02*
X012994Y007941D01*
X013187Y007748D01*
X013187Y007941D01*
X012962Y012062D02*
X012962Y012256D01*
X012914Y012256D02*
X013107Y012256D01*
X014489Y012778D02*
X014876Y012778D01*
X014827Y012730D02*
X014827Y012826D01*
X014779Y012875D01*
X014731Y012875D01*
X014682Y012826D01*
X014682Y012730D01*
X014634Y012681D01*
X014586Y012681D01*
X014537Y012730D01*
X014537Y012826D01*
X014586Y012875D01*
X014537Y012976D02*
X014682Y012976D01*
X014634Y013073D01*
X014634Y013121D01*
X014682Y013169D01*
X014779Y013169D01*
X014827Y013121D01*
X014827Y013024D01*
X014779Y012976D01*
X014537Y012976D02*
X014537Y013169D01*
X014827Y012730D02*
X014779Y012681D01*
X014779Y012580D02*
X014537Y012580D01*
X014537Y012387D02*
X014779Y012387D01*
X014827Y012435D01*
X014827Y012532D01*
X014779Y012580D01*
D14*
X013844Y015246D02*
X013614Y015246D01*
X013614Y015706D01*
X013844Y015706D01*
X013921Y015629D01*
X013921Y015553D01*
X013844Y015476D01*
X013614Y015476D01*
X013460Y015553D02*
X013460Y015629D01*
X013384Y015706D01*
X013230Y015706D01*
X013154Y015629D01*
X013154Y015553D01*
X013230Y015476D01*
X013384Y015476D01*
X013460Y015399D01*
X013460Y015322D01*
X013384Y015246D01*
X013230Y015246D01*
X013154Y015322D01*
X013154Y015399D01*
X013230Y015476D01*
X013384Y015476D02*
X013460Y015553D01*
X013844Y015476D02*
X013921Y015399D01*
X013921Y015322D01*
X013844Y015246D01*
X013000Y015246D02*
X012693Y015246D01*
X013000Y015553D01*
X013000Y015629D01*
X012923Y015706D01*
X012770Y015706D01*
X012693Y015629D01*
X012386Y015706D02*
X012386Y015246D01*
X012233Y015246D02*
X012540Y015246D01*
X012233Y015553D02*
X012386Y015706D01*
X012079Y015706D02*
X011772Y015706D01*
X011772Y015246D01*
X011619Y015322D02*
X011542Y015246D01*
X011389Y015246D01*
X011312Y015322D01*
X011619Y015629D01*
X011619Y015322D01*
X011772Y015476D02*
X011926Y015476D01*
X011619Y015629D02*
X011542Y015706D01*
X011389Y015706D01*
X011312Y015629D01*
X011312Y015322D01*
X011159Y015322D02*
X011159Y015476D01*
X011082Y015553D01*
X011005Y015553D01*
X010852Y015476D01*
X010852Y015706D01*
X011159Y015706D01*
X011159Y015322D02*
X011082Y015246D01*
X010928Y015246D01*
X010852Y015322D01*
X010698Y015246D02*
X010391Y015246D01*
X010698Y015553D01*
X010698Y015629D01*
X010622Y015706D01*
X010468Y015706D01*
X010391Y015629D01*
X010238Y015706D02*
X009931Y015246D01*
X009778Y015246D02*
X009778Y015706D01*
X009624Y015553D01*
X009471Y015706D01*
X009471Y015246D01*
X009317Y015246D02*
X009010Y015246D01*
X009317Y015553D01*
X009317Y015629D01*
X009240Y015706D01*
X009087Y015706D01*
X009010Y015629D01*
X008857Y015629D02*
X008857Y015553D01*
X008780Y015476D01*
X008857Y015399D01*
X008857Y015322D01*
X008780Y015246D01*
X008627Y015246D01*
X008550Y015322D01*
X008396Y015322D02*
X008320Y015246D01*
X008166Y015246D01*
X008090Y015322D01*
X008090Y015629D01*
X008166Y015706D01*
X008320Y015706D01*
X008396Y015629D01*
X008550Y015629D02*
X008627Y015706D01*
X008780Y015706D01*
X008857Y015629D01*
X008780Y015476D02*
X008703Y015476D01*
X008982Y015836D02*
X009216Y015836D01*
X009099Y015836D02*
X009099Y016186D01*
X008982Y016069D01*
X009341Y016128D02*
X009341Y015894D01*
X009575Y016128D01*
X009575Y015894D01*
X009517Y015836D01*
X009400Y015836D01*
X009341Y015894D01*
X009341Y016128D02*
X009400Y016186D01*
X009517Y016186D01*
X009575Y016128D01*
X009701Y016186D02*
X009701Y015836D01*
X009701Y015952D02*
X009876Y016069D01*
X009701Y015952D02*
X009876Y015836D01*
X009931Y015706D02*
X010238Y015246D01*
X010555Y013783D02*
X010555Y013169D01*
X010632Y013246D02*
X010708Y013322D01*
X010708Y013399D01*
X010632Y013476D01*
X010478Y013476D01*
X010402Y013553D01*
X010402Y013629D01*
X010478Y013706D01*
X010632Y013706D01*
X010708Y013629D01*
X010862Y013629D02*
X010862Y013553D01*
X010939Y013476D01*
X011092Y013476D01*
X011169Y013399D01*
X011169Y013322D01*
X011092Y013246D01*
X010939Y013246D01*
X010862Y013322D01*
X010862Y013399D01*
X010939Y013476D01*
X011092Y013476D02*
X011169Y013553D01*
X011169Y013629D01*
X011092Y013706D01*
X010939Y013706D01*
X010862Y013629D01*
X010632Y013246D02*
X010478Y013246D01*
X010402Y013322D01*
X010248Y013322D02*
X010248Y013706D01*
X009941Y013706D02*
X009941Y013322D01*
X010018Y013246D01*
X010171Y013246D01*
X010248Y013322D01*
X007936Y015246D02*
X007783Y015246D01*
X007859Y015246D02*
X007859Y015706D01*
X007783Y015706D02*
X007936Y015706D01*
X007629Y015629D02*
X007629Y015476D01*
X007553Y015399D01*
X007322Y015399D01*
X007322Y015246D02*
X007322Y015706D01*
X007553Y015706D01*
X007629Y015629D01*
X007192Y016406D02*
X007192Y016639D01*
X007192Y016522D02*
X006842Y016522D01*
X006959Y016406D01*
X006900Y016765D02*
X006842Y016823D01*
X006842Y016940D01*
X006900Y016998D01*
X007134Y016765D01*
X007192Y016823D01*
X007192Y016940D01*
X007134Y016998D01*
X006900Y016998D01*
X006842Y017124D02*
X007192Y017124D01*
X007076Y017124D02*
X006959Y017299D01*
X007076Y017124D02*
X007192Y017299D01*
X007134Y016765D02*
X006900Y016765D01*
X005822Y016689D02*
X005706Y016572D01*
X005706Y016631D02*
X005706Y016456D01*
X005822Y016456D02*
X005472Y016456D01*
X005472Y016631D01*
X005530Y016689D01*
X005647Y016689D01*
X005706Y016631D01*
X005647Y016815D02*
X005647Y017048D01*
X005472Y016990D02*
X005647Y016815D01*
X005822Y016990D02*
X005472Y016990D01*
X009032Y017206D02*
X009032Y017556D01*
X009207Y017556D01*
X009266Y017498D01*
X009266Y017381D01*
X009207Y017322D01*
X009032Y017322D01*
X009149Y017322D02*
X009266Y017206D01*
X009391Y017264D02*
X009450Y017206D01*
X009567Y017206D01*
X009625Y017264D01*
X009625Y017381D01*
X009567Y017439D01*
X009508Y017439D01*
X009391Y017381D01*
X009391Y017556D01*
X009625Y017556D01*
X015772Y017684D02*
X015772Y017377D01*
X016232Y017377D01*
X016232Y017223D02*
X015925Y017223D01*
X016002Y017377D02*
X016002Y017530D01*
X016232Y017223D02*
X016232Y016993D01*
X016156Y016916D01*
X015925Y016916D01*
X015849Y016763D02*
X016156Y016456D01*
X016232Y016533D01*
X016232Y016686D01*
X016156Y016763D01*
X015849Y016763D01*
X015772Y016686D01*
X015772Y016533D01*
X015849Y016456D01*
X016156Y016456D01*
X016232Y016303D02*
X016232Y015996D01*
X016232Y016149D02*
X015772Y016149D01*
X015925Y015996D01*
X018394Y018396D02*
X018394Y018746D01*
X018569Y018746D01*
X018628Y018688D01*
X018628Y018571D01*
X018569Y018512D01*
X018394Y018512D01*
X018511Y018512D02*
X018628Y018396D01*
X018753Y018396D02*
X018987Y018396D01*
X018870Y018396D02*
X018870Y018746D01*
X018753Y018629D01*
X018862Y019766D02*
X018803Y019824D01*
X019037Y020058D01*
X019037Y019824D01*
X018978Y019766D01*
X018862Y019766D01*
X018803Y019824D02*
X018803Y020058D01*
X018862Y020116D01*
X018978Y020116D01*
X019037Y020058D01*
X018678Y020058D02*
X018678Y019999D01*
X018619Y019941D01*
X018678Y019882D01*
X018678Y019824D01*
X018619Y019766D01*
X018503Y019766D01*
X018444Y019824D01*
X018319Y019824D02*
X018260Y019766D01*
X018143Y019766D01*
X018085Y019824D01*
X018202Y019941D02*
X018260Y019941D01*
X018319Y019882D01*
X018319Y019824D01*
X018260Y019941D02*
X018319Y019999D01*
X018319Y020058D01*
X018260Y020116D01*
X018143Y020116D01*
X018085Y020058D01*
X018444Y020058D02*
X018503Y020116D01*
X018619Y020116D01*
X018678Y020058D01*
X018619Y019941D02*
X018561Y019941D01*
X018665Y016462D02*
X018665Y015989D01*
X018940Y015989D02*
X018940Y016462D01*
X019072Y016439D02*
X019532Y016439D01*
X019532Y016592D02*
X019532Y016285D01*
X019456Y016132D02*
X019149Y016132D01*
X019072Y016055D01*
X019072Y015825D01*
X019532Y015825D01*
X019532Y016055D01*
X019456Y016132D01*
X019225Y016285D02*
X019072Y016439D01*
X019072Y015671D02*
X019072Y015364D01*
X019532Y015364D01*
X019532Y015671D01*
X019302Y015518D02*
X019302Y015364D01*
X019532Y015211D02*
X019532Y014904D01*
X019072Y014904D01*
X019002Y011810D02*
X018771Y011810D01*
X018771Y011350D01*
X019002Y011350D01*
X019078Y011427D01*
X019078Y011503D01*
X019002Y011580D01*
X018771Y011580D01*
X018618Y011503D02*
X018618Y011427D01*
X018541Y011350D01*
X018388Y011350D01*
X018311Y011427D01*
X018158Y011427D02*
X018158Y011810D01*
X018311Y011734D02*
X018311Y011657D01*
X018388Y011580D01*
X018541Y011580D01*
X018618Y011503D01*
X018618Y011734D02*
X018541Y011810D01*
X018388Y011810D01*
X018311Y011734D01*
X018158Y011427D02*
X018081Y011350D01*
X017927Y011350D01*
X017851Y011427D01*
X017851Y011810D01*
X019002Y011810D02*
X019078Y011734D01*
X019078Y011657D01*
X019002Y011580D01*
X019001Y007060D02*
X018848Y007060D01*
X018771Y006984D01*
X018771Y006907D01*
X018848Y006830D01*
X019078Y006830D01*
X019078Y006677D02*
X019078Y006984D01*
X019001Y007060D01*
X018618Y006984D02*
X018618Y006907D01*
X018311Y006600D01*
X018618Y006600D01*
X018771Y006677D02*
X018848Y006600D01*
X019001Y006600D01*
X019078Y006677D01*
X018618Y006984D02*
X018541Y007060D01*
X018388Y007060D01*
X018311Y006984D01*
X018158Y006984D02*
X018081Y007060D01*
X017927Y007060D01*
X017851Y006984D01*
X017851Y006907D01*
X017927Y006830D01*
X018081Y006830D01*
X018158Y006753D01*
X018158Y006677D01*
X018081Y006600D01*
X017927Y006600D01*
X017851Y006677D01*
X017697Y006677D02*
X017697Y007060D01*
X017390Y007060D02*
X017390Y006677D01*
X017467Y006600D01*
X017620Y006600D01*
X017697Y006677D01*
X018004Y006523D02*
X018004Y007137D01*
X005934Y003628D02*
X005934Y003394D01*
X005876Y003336D01*
X005759Y003336D01*
X005701Y003394D01*
X005934Y003628D01*
X005876Y003686D01*
X005759Y003686D01*
X005701Y003628D01*
X005701Y003394D01*
X005575Y003394D02*
X005517Y003336D01*
X005400Y003336D01*
X005341Y003394D01*
X005216Y003394D02*
X005157Y003336D01*
X005041Y003336D01*
X004982Y003394D01*
X005099Y003511D02*
X005157Y003511D01*
X005216Y003452D01*
X005216Y003394D01*
X005157Y003511D02*
X005216Y003569D01*
X005216Y003628D01*
X005157Y003686D01*
X005041Y003686D01*
X004982Y003628D01*
X005341Y003628D02*
X005400Y003686D01*
X005517Y003686D01*
X005575Y003628D01*
X005575Y003569D01*
X005517Y003511D01*
X005575Y003452D01*
X005575Y003394D01*
X005517Y003511D02*
X005458Y003511D01*
X005391Y004706D02*
X005625Y004939D01*
X005625Y004998D01*
X005567Y005056D01*
X005450Y005056D01*
X005391Y004998D01*
X005266Y004998D02*
X005266Y004881D01*
X005207Y004822D01*
X005032Y004822D01*
X005032Y004706D02*
X005032Y005056D01*
X005207Y005056D01*
X005266Y004998D01*
X005149Y004822D02*
X005266Y004706D01*
X005391Y004706D02*
X005625Y004706D01*
X003169Y004996D02*
X002862Y004996D01*
X003169Y005303D01*
X003169Y005379D01*
X003092Y005456D01*
X002939Y005456D01*
X002862Y005379D01*
X002708Y005379D02*
X002632Y005456D01*
X002402Y005456D01*
X002402Y004996D01*
X002632Y004996D01*
X002708Y005072D01*
X002708Y005379D01*
X002566Y005588D02*
X003039Y005588D01*
X003039Y005863D02*
X002566Y005863D01*
X002248Y005456D02*
X001941Y005456D01*
X001941Y004996D01*
X002248Y004996D01*
X002095Y005226D02*
X001941Y005226D01*
X001788Y004996D02*
X001481Y004996D01*
X001481Y005456D01*
X002566Y002863D02*
X003039Y002863D01*
X003039Y002588D02*
X002566Y002588D01*
X002632Y002456D02*
X002402Y002456D01*
X002402Y001996D01*
X002632Y001996D01*
X002708Y002072D01*
X002708Y002379D01*
X002632Y002456D01*
X002862Y002379D02*
X002939Y002456D01*
X003092Y002456D01*
X003169Y002379D01*
X003169Y002303D01*
X003092Y002226D01*
X003169Y002149D01*
X003169Y002072D01*
X003092Y001996D01*
X002939Y001996D01*
X002862Y002072D01*
X003015Y002226D02*
X003092Y002226D01*
X002248Y002456D02*
X001941Y002456D01*
X001941Y001996D01*
X002248Y001996D01*
X002095Y002226D02*
X001941Y002226D01*
X001788Y001996D02*
X001481Y001996D01*
X001481Y002456D01*
X003982Y000628D02*
X004041Y000686D01*
X004157Y000686D01*
X004216Y000628D01*
X004216Y000569D01*
X004157Y000511D01*
X004216Y000452D01*
X004216Y000394D01*
X004157Y000336D01*
X004041Y000336D01*
X003982Y000394D01*
X004099Y000511D02*
X004157Y000511D01*
X004341Y000628D02*
X004400Y000686D01*
X004517Y000686D01*
X004575Y000628D01*
X004575Y000569D01*
X004517Y000511D01*
X004575Y000452D01*
X004575Y000394D01*
X004517Y000336D01*
X004400Y000336D01*
X004341Y000394D01*
X004458Y000511D02*
X004517Y000511D01*
X004701Y000394D02*
X004701Y000628D01*
X004759Y000686D01*
X004876Y000686D01*
X004934Y000628D01*
X004701Y000394D01*
X004759Y000336D01*
X004876Y000336D01*
X004934Y000394D01*
X004934Y000628D01*
X004567Y001706D02*
X004450Y001706D01*
X004391Y001764D01*
X004266Y001706D02*
X004149Y001822D01*
X004207Y001822D02*
X004032Y001822D01*
X004032Y001706D02*
X004032Y002056D01*
X004207Y002056D01*
X004266Y001998D01*
X004266Y001881D01*
X004207Y001822D01*
X004391Y001998D02*
X004450Y002056D01*
X004567Y002056D01*
X004625Y001998D01*
X004625Y001939D01*
X004567Y001881D01*
X004625Y001822D01*
X004625Y001764D01*
X004567Y001706D01*
X004567Y001881D02*
X004508Y001881D01*
D15*
X012482Y018766D03*
D16*
X012577Y019976D03*
X016027Y019976D03*
D17*
X015302Y020076D03*
X014302Y020076D03*
X013302Y020076D03*
D18*
X013802Y019976D03*
X014802Y019976D03*
D19*
X018802Y016304D03*
X002881Y005726D03*
X002881Y002726D03*
D20*
X015502Y013596D02*
X016102Y013596D01*
X016102Y013846D02*
X015502Y013846D01*
X017002Y016096D02*
X017602Y016096D01*
X017602Y016346D02*
X017002Y016346D01*
X018502Y013856D02*
X019102Y013856D01*
X019102Y013606D02*
X018502Y013606D01*
D21*
X018227Y013511D02*
X017927Y013811D01*
X017852Y013811D01*
X017777Y013736D01*
X017777Y013586D01*
X017852Y013511D01*
X017852Y013351D02*
X017777Y013276D01*
X017777Y013126D01*
X017852Y013051D01*
X018152Y013051D01*
X018227Y013126D01*
X018227Y013276D01*
X018152Y013351D01*
X018227Y013511D02*
X018227Y013811D01*
X019377Y013891D02*
X019527Y013741D01*
X019377Y013891D02*
X019827Y013891D01*
X019827Y013741D02*
X019827Y014041D01*
X019752Y014202D02*
X019827Y014277D01*
X019827Y014502D01*
X019527Y014502D01*
X019602Y014662D02*
X019602Y014812D01*
X019377Y014662D02*
X019377Y014962D01*
X019377Y014662D02*
X019827Y014662D01*
X019752Y014202D02*
X019527Y014202D01*
X019752Y013586D02*
X019827Y013586D01*
X019827Y013511D01*
X019752Y013511D01*
X019752Y013586D01*
X019752Y013351D02*
X019452Y013351D01*
X019752Y013051D01*
X019827Y013126D01*
X019827Y013276D01*
X019752Y013351D01*
X019452Y013351D02*
X019377Y013276D01*
X019377Y013126D01*
X019452Y013051D01*
X019752Y013051D01*
X016827Y013605D02*
X016752Y013530D01*
X016452Y013530D01*
X016377Y013605D01*
X016377Y013755D01*
X016452Y013830D01*
X016602Y013990D02*
X016602Y014291D01*
X016377Y014215D02*
X016602Y013990D01*
X016752Y013830D02*
X016827Y013755D01*
X016827Y013605D01*
X016827Y014215D02*
X016377Y014215D01*
X016352Y014879D02*
X016277Y014954D01*
X016277Y015104D01*
X016352Y015179D01*
X016652Y014879D01*
X016727Y014954D01*
X016727Y015104D01*
X016652Y015179D01*
X016352Y015179D01*
X016352Y014879D02*
X016652Y014879D01*
X016652Y015339D02*
X016652Y015414D01*
X016727Y015414D01*
X016727Y015339D01*
X016652Y015339D01*
X016727Y015569D02*
X016727Y015870D01*
X016727Y015720D02*
X016277Y015720D01*
X016427Y015569D01*
X016427Y016030D02*
X016652Y016030D01*
X016727Y016105D01*
X016727Y016330D01*
X016427Y016330D01*
X016502Y016490D02*
X016502Y016640D01*
X016277Y016490D02*
X016277Y016790D01*
X016277Y016490D02*
X016727Y016490D01*
X017877Y016640D02*
X018327Y016640D01*
X018327Y016490D02*
X018327Y016791D01*
X018027Y016490D02*
X017877Y016640D01*
X017952Y016330D02*
X017877Y016255D01*
X017877Y016105D01*
X017952Y016030D01*
X018252Y016030D01*
X018327Y016105D01*
X018327Y016255D01*
X018252Y016330D01*
X015227Y013990D02*
X014777Y013990D01*
X014777Y014290D01*
X015002Y014140D02*
X015002Y013990D01*
X014927Y013830D02*
X015227Y013830D01*
X015227Y013605D01*
X015152Y013530D01*
X014927Y013530D01*
X015227Y013370D02*
X015227Y013069D01*
X015227Y013220D02*
X014777Y013220D01*
X014927Y013069D01*
X015152Y012914D02*
X015227Y012914D01*
X015227Y012839D01*
X015152Y012839D01*
X015152Y012914D01*
X015152Y012679D02*
X015227Y012604D01*
X015227Y012454D01*
X015152Y012379D01*
X014852Y012679D01*
X015152Y012679D01*
X015152Y012379D02*
X014852Y012379D01*
X014777Y012454D01*
X014777Y012604D01*
X014852Y012679D01*
X011302Y015226D02*
X010802Y015226D01*
X010800Y015182D01*
X010794Y015139D01*
X010785Y015097D01*
X010772Y015055D01*
X010755Y015015D01*
X010735Y014976D01*
X010712Y014939D01*
X010685Y014905D01*
X010656Y014872D01*
X010623Y014843D01*
X010589Y014816D01*
X010552Y014793D01*
X010513Y014773D01*
X010473Y014756D01*
X010431Y014743D01*
X010389Y014734D01*
X010346Y014728D01*
X010302Y014726D01*
X010258Y014728D01*
X010215Y014734D01*
X010173Y014743D01*
X010131Y014756D01*
X010091Y014773D01*
X010052Y014793D01*
X010015Y014816D01*
X009981Y014843D01*
X009948Y014872D01*
X009919Y014905D01*
X009892Y014939D01*
X009869Y014976D01*
X009849Y015015D01*
X009832Y015055D01*
X009819Y015097D01*
X009810Y015139D01*
X009804Y015182D01*
X009802Y015226D01*
X009302Y015226D01*
X009302Y001226D01*
X011302Y001226D01*
X011302Y015226D01*
M02*
