G75*
G70*
%OFA0B0*%
%FSLAX24Y24*%
%IPPOS*%
%LPD*%
%AMOC8*
5,1,8,0,0,1.08239X$1,22.5*
%
%ADD10C,0.0000*%
%ADD11R,0.0780X0.0780*%
%ADD12C,0.0780*%
%ADD13C,0.0555*%
%ADD14C,0.1162*%
%ADD15C,0.0640*%
%ADD16R,0.0690X0.0690*%
%ADD17C,0.0690*%
%ADD18OC8,0.0560*%
%ADD19C,0.0555*%
D10*
X000302Y000726D02*
X000302Y020411D01*
X019987Y020411D01*
X019987Y000726D01*
X000302Y000726D01*
D11*
X001302Y006726D03*
X003302Y007726D03*
X001302Y010726D03*
X001302Y014726D03*
X004802Y017226D03*
X007802Y019226D03*
X009802Y019226D03*
X013802Y012726D03*
X014802Y004726D03*
D12*
X014802Y003726D03*
X014802Y002726D03*
X014802Y001726D03*
X013802Y009726D03*
X013802Y010726D03*
X013802Y011726D03*
X010802Y019226D03*
X008802Y019226D03*
X003802Y017226D03*
X002802Y017226D03*
X001802Y017226D03*
X000802Y017226D03*
X001302Y013726D03*
X001302Y012726D03*
X001302Y011726D03*
X001302Y009726D03*
X001302Y008726D03*
X001302Y007726D03*
X001302Y005726D03*
X001302Y004726D03*
X001302Y003726D03*
X004302Y007726D03*
X005302Y007726D03*
D13*
X016202Y008556D03*
X016202Y009226D03*
X016822Y009556D03*
X016822Y008866D03*
X016202Y009926D03*
D14*
X018302Y010663D03*
X018302Y007789D03*
D15*
X015302Y018926D02*
X015302Y019526D01*
X014302Y019526D02*
X014302Y018926D01*
X013302Y018926D02*
X013302Y019526D01*
D16*
X014802Y016726D03*
X014302Y006726D03*
D17*
X014302Y005726D03*
X014802Y015726D03*
D18*
X015802Y014226D03*
X015802Y013226D03*
X017302Y015726D03*
X017302Y016726D03*
X017302Y019226D03*
X019302Y019226D03*
X018802Y014226D03*
X018802Y013226D03*
X010802Y016726D03*
X008802Y016726D03*
X006302Y016226D03*
X006302Y018226D03*
X006802Y004226D03*
X004802Y004226D03*
X003802Y001226D03*
X005802Y001226D03*
D19*
X008545Y001726D02*
X009060Y001726D01*
X009060Y002726D02*
X008545Y002726D01*
X008545Y003726D02*
X009060Y003726D01*
X009060Y004726D02*
X008545Y004726D01*
X008545Y005726D02*
X009060Y005726D01*
X009060Y006726D02*
X008545Y006726D01*
X008545Y007726D02*
X009060Y007726D01*
X009060Y008726D02*
X008545Y008726D01*
X008545Y009726D02*
X009060Y009726D01*
X009060Y010726D02*
X008545Y010726D01*
X008545Y011726D02*
X009060Y011726D01*
X009060Y012726D02*
X008545Y012726D01*
X008545Y013726D02*
X009060Y013726D01*
X009060Y014726D02*
X008545Y014726D01*
X011545Y014726D02*
X012060Y014726D01*
X012060Y013726D02*
X011545Y013726D01*
X011545Y012726D02*
X012060Y012726D01*
X012060Y011726D02*
X011545Y011726D01*
X011545Y010726D02*
X012060Y010726D01*
X012060Y009726D02*
X011545Y009726D01*
X011545Y008726D02*
X012060Y008726D01*
X012060Y007726D02*
X011545Y007726D01*
X011545Y006726D02*
X012060Y006726D01*
X012060Y005726D02*
X011545Y005726D01*
X011545Y004726D02*
X012060Y004726D01*
X012060Y003726D02*
X011545Y003726D01*
X011545Y002726D02*
X012060Y002726D01*
X012060Y001726D02*
X011545Y001726D01*
M02*
