%
M48
M72
T01C0.0236
T02C0.0276
T03C0.0315
T04C0.0320
T05C0.0400
T06C0.0748
%
T01
X7802Y16226
X14802Y7726
T02
X14802Y15726
X14802Y16726
X14302Y5726
X14302Y6726
T03
X8802Y14726
X8802Y1726
X8802Y2726
X8802Y3726
X8802Y4726
X8802Y5726
X8802Y6726
X8802Y7726
X8802Y8726
X8802Y9726
X8802Y10726
X8802Y11726
X8802Y12726
X8802Y13726
X11802Y13726
X11802Y12726
X11802Y11726
X11802Y10726
X11802Y9726
X11802Y8726
X11802Y7726
X11802Y6726
X11802Y5726
X11802Y4726
X11802Y3726
X11802Y2726
X11802Y1726
X11802Y14726
X16202Y8556
X16202Y9226
X16822Y9556
X16822Y8866
X16202Y9926
T04
X6302Y18226
X6302Y16226
X10802Y16726
X8802Y16726
X6802Y4226
X4802Y4226
X15802Y13226
X15802Y14226
X17302Y15726
X18802Y13226
X18802Y14226
X5802Y1226
X3802Y1226
X17302Y16726
X17302Y19226
X19302Y19226
T05
X4802Y17226
X802Y17226
X1802Y17226
X2802Y17226
X1302Y6726
X1302Y4726
X1302Y7726
X1302Y10726
X1302Y11726
X1302Y14726
X1302Y13726
X1302Y12726
X1302Y9726
X1302Y8726
X3302Y7726
X4302Y7726
X5302Y7726
X1302Y5726
X1302Y3726
X14802Y4726
X14802Y2726
X14802Y3726
X14802Y1726
X13802Y9726
X13802Y12726
X13802Y11726
X13802Y10726
X13302Y19226
X10802Y19226
X9802Y19226
X8802Y19226
X7802Y19226
X3802Y17226
X14302Y19226
X15302Y19226
T06
X18302Y10663
X18302Y7789
M30
