G75*
G70*
%OFA0B0*%
%FSLAX24Y24*%
%IPPOS*%
%LPD*%
%AMOC8*
5,1,8,0,0,1.08239X$1,22.5*
%
%ADD10C,0.0000*%
%ADD11R,0.0740X0.0740*%
%ADD12C,0.0740*%
%ADD13C,0.0515*%
%ADD14C,0.1122*%
%ADD15C,0.0600*%
%ADD16R,0.0650X0.0650*%
%ADD17C,0.0650*%
%ADD18R,0.0315X0.0197*%
%ADD19R,0.0138X0.0138*%
%ADD20R,0.0197X0.0315*%
%ADD21OC8,0.0520*%
%ADD22C,0.0515*%
%ADD23C,0.0160*%
%ADD24R,0.0356X0.0356*%
D10*
X000302Y000726D02*
X000302Y020411D01*
X019987Y020411D01*
X019987Y000726D01*
X000302Y000726D01*
D11*
X001302Y006726D03*
X003302Y007726D03*
X001302Y010726D03*
X001302Y014726D03*
X004802Y017226D03*
X007802Y019226D03*
X009802Y019226D03*
X013802Y012726D03*
X014802Y004726D03*
D12*
X014802Y003726D03*
X014802Y002726D03*
X014802Y001726D03*
X013802Y009726D03*
X013802Y010726D03*
X013802Y011726D03*
X010802Y019226D03*
X008802Y019226D03*
X003802Y017226D03*
X002802Y017226D03*
X001802Y017226D03*
X000802Y017226D03*
X001302Y013726D03*
X001302Y012726D03*
X001302Y011726D03*
X001302Y009726D03*
X001302Y008726D03*
X001302Y007726D03*
X001302Y005726D03*
X001302Y004726D03*
X001302Y003726D03*
X004302Y007726D03*
X005302Y007726D03*
D13*
X016202Y008556D03*
X016202Y009226D03*
X016822Y009556D03*
X016822Y008866D03*
X016202Y009926D03*
D14*
X018302Y010663D03*
X018302Y007789D03*
D15*
X015302Y018926D02*
X015302Y019526D01*
X014302Y019526D02*
X014302Y018926D01*
X013302Y018926D02*
X013302Y019526D01*
D16*
X014802Y016726D03*
X014302Y006726D03*
D17*
X014302Y005726D03*
X014802Y015726D03*
D18*
X018802Y015881D03*
X018802Y016570D03*
D19*
X018802Y016423D03*
X018802Y016029D03*
X002999Y005726D03*
X002606Y005726D03*
X002606Y002726D03*
X002999Y002726D03*
D20*
X003147Y002726D03*
X002458Y002726D03*
X002458Y005726D03*
X003147Y005726D03*
D21*
X004802Y004226D03*
X006802Y004226D03*
X005802Y001226D03*
X003802Y001226D03*
X015802Y013226D03*
X015802Y014226D03*
X017302Y015726D03*
X017302Y016726D03*
X017302Y019226D03*
X019302Y019226D03*
X018802Y014226D03*
X018802Y013226D03*
X010802Y016726D03*
X008802Y016726D03*
X006302Y016226D03*
X006302Y018226D03*
D22*
X008545Y014726D02*
X009060Y014726D01*
X009060Y013726D02*
X008545Y013726D01*
X008545Y012726D02*
X009060Y012726D01*
X009060Y011726D02*
X008545Y011726D01*
X008545Y010726D02*
X009060Y010726D01*
X009060Y009726D02*
X008545Y009726D01*
X008545Y008726D02*
X009060Y008726D01*
X009060Y007726D02*
X008545Y007726D01*
X008545Y006726D02*
X009060Y006726D01*
X009060Y005726D02*
X008545Y005726D01*
X008545Y004726D02*
X009060Y004726D01*
X009060Y003726D02*
X008545Y003726D01*
X008545Y002726D02*
X009060Y002726D01*
X009060Y001726D02*
X008545Y001726D01*
X011545Y001726D02*
X012060Y001726D01*
X012060Y002726D02*
X011545Y002726D01*
X011545Y003726D02*
X012060Y003726D01*
X012060Y004726D02*
X011545Y004726D01*
X011545Y005726D02*
X012060Y005726D01*
X012060Y006726D02*
X011545Y006726D01*
X011545Y007726D02*
X012060Y007726D01*
X012060Y008726D02*
X011545Y008726D01*
X011545Y009726D02*
X012060Y009726D01*
X012060Y010726D02*
X011545Y010726D01*
X011545Y011726D02*
X012060Y011726D01*
X012060Y012726D02*
X011545Y012726D01*
X011545Y013726D02*
X012060Y013726D01*
X012060Y014726D02*
X011545Y014726D01*
D23*
X011802Y014726D02*
X011802Y016726D01*
X014802Y016726D01*
X015802Y016726D01*
X015802Y014226D01*
X017302Y014226D01*
X017302Y013226D01*
X018802Y013226D01*
X018802Y014226D02*
X018802Y016029D01*
X018802Y016423D02*
X018802Y016726D01*
X019302Y017226D01*
X019302Y019226D01*
X017302Y017726D02*
X017302Y016726D01*
X017302Y017726D02*
X016802Y017726D01*
X015302Y019226D01*
X011802Y016726D02*
X010802Y016726D01*
X009802Y017726D02*
X009802Y019226D01*
X009802Y017726D02*
X008802Y017726D01*
X008802Y016726D01*
X007802Y016226D02*
X007802Y019226D01*
X006302Y018226D02*
X004302Y018226D01*
X003802Y017226D01*
X003302Y016226D02*
X007802Y011726D01*
X006302Y010726D02*
X001302Y015726D01*
X000802Y017226D01*
X001802Y017226D02*
X001802Y016226D01*
X003302Y016226D01*
X003302Y007726D02*
X003302Y007226D01*
X003802Y006726D01*
X007302Y006726D01*
X007302Y005726D01*
X008802Y005726D01*
X008802Y004726D02*
X007802Y004726D01*
X006802Y005726D01*
X006802Y006226D01*
X003802Y006226D01*
X002302Y007726D01*
X001302Y007726D01*
X001302Y006726D02*
X002802Y006726D01*
X003802Y005726D01*
X006302Y005726D01*
X008302Y003726D01*
X008802Y003726D01*
X008802Y001726D02*
X005802Y001726D01*
X001802Y005726D01*
X001302Y005726D01*
X002999Y005726D02*
X003302Y005726D01*
X004802Y004226D01*
X002999Y002726D02*
X003999Y001423D01*
X003802Y001226D01*
X007802Y006726D02*
X008802Y006726D01*
X007802Y006726D02*
X006802Y007726D01*
X005302Y007726D01*
X011802Y007726D02*
X014802Y007726D01*
X015302Y008226D02*
X015302Y007226D01*
X016802Y007226D01*
X016822Y007246D01*
X016822Y008866D01*
X016202Y008556D02*
X015472Y008556D01*
X015302Y008726D01*
X015302Y011226D01*
X015802Y011226D01*
X016802Y012226D01*
X013802Y012726D02*
X011802Y012726D01*
X011802Y011726D02*
X013802Y011726D01*
X013802Y010726D02*
X011802Y010726D01*
X011802Y008726D02*
X012802Y008726D01*
X012802Y008226D01*
X015302Y008226D01*
X014302Y006726D02*
X011802Y006726D01*
D24*
X014802Y007726D03*
X007802Y016226D03*
M02*
